<svg width="32" height="32" viewBox="0 0 32 32" fill="none" xmlns="http://www.w3.org/2000/svg">
  <!-- Calculator body -->
  <rect x="4" y="6" width="24" height="20" rx="2" fill="#10B981"/>
  <rect x="6" y="8" width="20" height="16" rx="1" fill="#059669"/>
  
  <!-- Display screen -->
  <rect x="8" y="10" width="16" height="4" rx="1" fill="#D1FAE5"/>
  
  <!-- Calculator buttons -->
  <rect x="8" y="16" width="3" height="3" rx="1" fill="#10B981"/>
  <rect x="13" y="16" width="3" height="3" rx="1" fill="#10B981"/>
  <rect x="18" y="16" width="3" height="3" rx="1" fill="#10B981"/>
  <rect x="23" y="16" width="3" height="3" rx="1" fill="#10B981"/>
  
  <rect x="8" y="21" width="3" height="3" rx="1" fill="#10B981"/>
  <rect x="13" y="21" width="3" height="3" rx="1" fill="#10B981"/>
  <rect x="18" y="21" width="3" height="3" rx="1" fill="#10B981"/>
  <rect x="23" y="21" width="3" height="3" rx="1" fill="#10B981"/>
  
  <!-- Plus sign on last button -->
  <path d="M24.5 22.5h1v1h-1v-1zM24 22h1v1h-1v-1z" fill="white"/>
  <path d="M24.5 21.5h1v1h-1v-1z" fill="white"/>
</svg>