<svg width="32" height="32" viewBox="0 0 32 32" fill="none" xmlns="http://www.w3.org/2000/svg">
  <rect width="32" height="32" rx="6" fill="#059669"/>
  <path d="M8 10C8 8.89543 8.89543 8 10 8H22C23.1046 8 24 8.89543 24 10V22C24 23.1046 23.1046 24 22 24H10C8.89543 24 8 23.1046 8 22V10Z" fill="white"/>
  <path d="M10 12H22V14H10V12Z" fill="#059669"/>
  <path d="M10 16H12V18H10V16Z" fill="#059669"/>
  <path d="M14 16H16V18H14V16Z" fill="#059669"/>
  <path d="M18 16H20V18H18V16Z" fill="#059669"/>
  <path d="M22 16H24V18H22V16Z" fill="#059669"/>
  <path d="M10 19H12V21H10V19Z" fill="#059669"/>
  <path d="M14 19H16V21H14V19Z" fill="#059669"/>
  <path d="M18 19H20V21H18V19Z" fill="#059669"/>
  <path d="M22 19H24V21H22V19Z" fill="#059669"/>
</svg>